<svg xmlns="http://www.w3.org/2000/svg" version="1.1" xmlns:xlink="http://www.w3.org/1999/xlink" xmlns:svgjs="http://svgjs.com/svgjs" width="1920" height="6000" preserveAspectRatio="none" viewBox="0 0 1920 6000"><g mask="url(&quot;#SvgjsMask1059&quot;)" fill="none"><rect width="1920" height="6000" x="0" y="0" fill="rgba(255, 255, 255, 1)"></rect><path d="M-99.26 2193.62C245.83 2392.74-130.03 2623.85 697.83 3573.62 1525.69 4523.39 1048.85 6223.78 1494.92 6974.52" stroke="rgba(122, 127, 131, 0.56)" stroke-width="2"></path><path d="M-63.12 4857.68C384.78 4239.14 313.91 1782.45 766.17 1917.68 1218.43 2052.91 926.35 5213.13 1180.82 6278.2" stroke="rgba(122, 127, 131, 0.56)" stroke-width="2"></path><path d="M-68.75 609.39C161.07 686.52 238.56 1359.39 545.87 1359.39 853.18 1359.39 482.19-441.39 1160.49 609.39 1838.79 1660.17 1401.13 4851.11 1775.11 6208.8" stroke="rgba(122, 127, 131, 0.56)" stroke-width="2"></path><path d="M-194.56 856.21C120.56 1369.01-281.64 1842.98 371.68 3196.21 1024.99 4549.44 603.86 5921.49 937.91 6759.3" stroke="rgba(122, 127, 131, 0.56)" stroke-width="2"></path><path d="M-383.81 2639.52C-1.71 2328.58-376.79 88.29 418.01 839.52 1212.8 1590.75 739.91 5308.32 1219.82 6709.55" stroke="rgba(122, 127, 131, 0.56)" stroke-width="2"></path></g><defs><mask id="SvgjsMask1059"><rect width="1920" height="6000" fill="#ffffff"></rect></mask></defs></svg>