<svg xmlns="http://www.w3.org/2000/svg" version="1.1" xmlns:xlink="http://www.w3.org/1999/xlink" xmlns:svgjs="http://svgjs.com/svgjs" width="1920" height="6000" preserveAspectRatio="none" viewBox="0 0 1920 6000"><g mask="url(&quot;#SvgjsMask1052&quot;)" fill="none"><rect width="1920" height="6000" x="0" y="0" fill="rgba(255, 255, 255, 1)"></rect><use xlink:href="#SvgjsSymbol1053" x="0" y="0"></use><use xlink:href="#SvgjsSymbol1053" x="0" y="720"></use><use xlink:href="#SvgjsSymbol1053" x="0" y="1440"></use><use xlink:href="#SvgjsSymbol1053" x="0" y="2160"></use><use xlink:href="#SvgjsSymbol1053" x="0" y="2880"></use><use xlink:href="#SvgjsSymbol1053" x="0" y="3600"></use><use xlink:href="#SvgjsSymbol1053" x="0" y="4320"></use><use xlink:href="#SvgjsSymbol1053" x="0" y="5040"></use><use xlink:href="#SvgjsSymbol1053" x="0" y="5760"></use><use xlink:href="#SvgjsSymbol1053" x="720" y="0"></use><use xlink:href="#SvgjsSymbol1053" x="720" y="720"></use><use xlink:href="#SvgjsSymbol1053" x="720" y="1440"></use><use xlink:href="#SvgjsSymbol1053" x="720" y="2160"></use><use xlink:href="#SvgjsSymbol1053" x="720" y="2880"></use><use xlink:href="#SvgjsSymbol1053" x="720" y="3600"></use><use xlink:href="#SvgjsSymbol1053" x="720" y="4320"></use><use xlink:href="#SvgjsSymbol1053" x="720" y="5040"></use><use xlink:href="#SvgjsSymbol1053" x="720" y="5760"></use><use xlink:href="#SvgjsSymbol1053" x="1440" y="0"></use><use xlink:href="#SvgjsSymbol1053" x="1440" y="720"></use><use xlink:href="#SvgjsSymbol1053" x="1440" y="1440"></use><use xlink:href="#SvgjsSymbol1053" x="1440" y="2160"></use><use xlink:href="#SvgjsSymbol1053" x="1440" y="2880"></use><use xlink:href="#SvgjsSymbol1053" x="1440" y="3600"></use><use xlink:href="#SvgjsSymbol1053" x="1440" y="4320"></use><use xlink:href="#SvgjsSymbol1053" x="1440" y="5040"></use><use xlink:href="#SvgjsSymbol1053" x="1440" y="5760"></use></g><defs><mask id="SvgjsMask1052"><rect width="1920" height="6000" fill="#ffffff"></rect></mask><path d="M-1 0 a1 1 0 1 0 2 0 a1 1 0 1 0 -2 0z"></path><path d="M-3 0 a3 3 0 1 0 6 0 a3 3 0 1 0 -6 0z"></path><path d="M-5 0 a5 5 0 1 0 10 0 a5 5 0 1 0 -10 0z"></path><path d="M2 -2 L-2 2z"></path><path d="M6 -6 L-6 6z"></path><path d="M30 -30 L-30 30z"></path></defs><symbol id="SvgjsSymbol1053"></symbol></svg>